<?xml version="1.0" encoding="utf-8"?>
<!-- Generator: Adobe Illustrator 27.1.1, SVG Export Plug-In . SVG Version: 6.00 Build 0)  -->
<svg version="1.1" id="圖層_1" xmlns="http://www.w3.org/2000/svg" xmlns:xlink="http://www.w3.org/1999/xlink" x="0px" y="0px"
	 viewBox="0 0 279 235" style="enable-background:new 0 0 279 235;" xml:space="preserve">
<style type="text/css">
	.st0{fill:#DEF4FF;}
	.st1{fill:#FF1717;}
	.st2{fill:#FFFFFF;}
</style>
<path class="st0" d="M52.41,200.31c0,0,62.5-55.9,64.54-117.05l49.59-4.76c0,0-11.56,50.64,62.84,123.81L52.41,200.31z"/>
<g>
	<path d="M258.4,206c-79.93,0-159.86,0-239.79,0c-0.05-1.71,1.1-4.61,3.14-5.14c7.46,0,11.8,0.96,19.04-0.29
		c6.14-1.06,13.43-3.18,17.48-7.43c23.73-24.89,42.7-53.11,53.67-85.95c1.84-5.51,1.02-13.47-1.71-18.65
		c-9.49-17.98-7.01-37.71,7.85-50.18c13.53-11.35,35.22-11.13,48.86,0.51c14.39,12.27,16.78,32.72,6.89,50.32
		c-2.37,4.21-3.49,10.76-2.05,15.22c11.37,35.41,31.96,65.29,57.58,91.82c2.61,2.7,7.52,3.73,11.54,4.36
		c5.68,0.9,8.16,0.71,13.94,0.99C257.07,202.32,258.35,204.53,258.4,206z M152.81,142.49c-8.44-4.83-15.13-8.34-21.43-12.46
		c-1.9-1.24-2.7-4.17-4-6.33c-1.78,1.76-3.39,3.74-5.37,5.24c-2.98,2.26-6.16,4.27-9.35,6.23c-2.25,1.38-5.54,1.88-6.86,3.8
		c-13.97,20.29-27.63,40.78-41.46,61.34c51.92,0,104.46,0,157.45,0c-14.96-20.37-29.39-40.01-42.31-57.6
		c-6.31,3.88-11.36,9.28-16.51,9.37C159.25,152.14,155.41,145.14,152.81,142.49z M113.67,124.72c4.02-2.44,9.42-8.34,13.48-7.53
		c5.44,1.09,9.84,7.38,14.68,11.43c4.09,2.46,10.56,1.49,14.79,4.13c3.74,2.33,4.98,8.68,7.64,13.88c3.91-5.69,7.13-10.37,10.1-14.7
		c-4.25-12.91-8.08-25.9-12.99-38.47c-1.15-2.95-5.99-6.41-9.02-6.31c-9.82,0.33-19.59,2.2-29.37,3.53
		c-0.15,0.02-0.21,0.73-0.32,1.11C119.46,103.51,116.26,115.24,113.67,124.72z"/>
	<path d="M88.84,191.86c6.89-11.91,13.77-23.82,21.54-37.24c3.21,11.78-6.86,30.81-18.63,38.79
		C90.77,192.89,89.8,192.37,88.84,191.86z"/>
	<path d="M180.67,169.94c4.66,7.05,9.33,14.11,13.99,21.16c-1.47,1-2.95,1.99-4.42,2.99c-4.88-7.01-9.77-14.03-14.65-21.04
		C177.28,172.02,178.98,170.98,180.67,169.94z"/>
</g>
<path class="st1" d="M122.68,91.69c0.09-0.39,0.16-1,0.3-1.02c9.78-1.33,19.55-3.2,29.37-3.53c2.59-0.09,6.47,2.42,8.28,4.99
	c7.7-5.72,12.72-14.86,12.72-25.19c0-17.34-14.06-31.4-31.4-31.4c-17.34,0-31.4,14.06-31.4,31.4
	C110.55,77,115.31,85.94,122.68,91.69z"/>
<path d="M113.67,95.07c0.74-6.28,2.27-10.02,12.8-11.38s42.63-6.35,41.78,4.55c-0.85,10.9,0.02,14.64,0.02,14.64L113.67,95.07z"/>
<path class="st2" d="M113.67,124.72c4.02-2.44,9.42-8.34,13.48-7.53c5.44,1.09,9.84,7.38,14.68,11.43
	c4.09,2.46,10.56,1.49,14.79,4.13c3.74,2.33,4.98,8.68,7.64,13.88c3.91-5.69,7.13-10.37,10.1-14.7
	c-4.25-12.91-8.08-25.9-12.99-38.47c-1.15-2.95-5.99-6.41-9.02-6.31c-9.82,0.33-19.59,2.2-29.37,3.53
	c-0.15,0.02-0.21,0.73-0.32,1.11C119.46,103.51,116.26,115.24,113.67,124.72z"/>
</svg>
